<svg id="sw-js-blob-svg" viewBox="0 0 100 100" xmlns="http://www.w3.org/2000/svg" version="1.1" width="100%" height="100%">
    <defs> 
        <linearGradient id="sw-gradient" x1="0" x2="1" y1="1" y2="0">
            <stop id="stop1" stop-color="rgba(120.264, 248, 55, 1)" offset="0%"></stop>
            <stop id="stop2" stop-color="rgba(251, 168, 31, 1)" offset="100%"></stop>
        </linearGradient>
    </defs>
    <path fill="url(#sw-gradient)" 
        d="M22.2,-34.3C27.7,-31.1,30.4,-23.1,34.1,-15.4C37.8,-7.8,42.7,-0.5,43.4,7.4C44,15.2,40.5,23.7,34.8,29.9C29,36.2,21,40.4,13.2,40.7C5.4,41,-2.3,37.4,-9.5,34.4C-16.7,31.3,-23.5,28.8,-29,24.2C-34.4,19.5,-38.5,12.8,-40.4,5.3C-42.2,-2.2,-41.7,-10.5,-38.8,-18.1C-35.9,-25.7,-30.6,-32.6,-23.8,-35.1C-16.9,-37.7,-8.4,-35.9,0,-35.8C8.4,-35.8,16.8,-37.5,22.2,-34.3Z" 
        width="100%" height="100%" transform="translate(50 50)" stroke-width="0" style="transition: all 0.3s ease 0s;" stroke="url(#sw-gradient)">
    </path>
</svg>
